<svg width="28" height="28" viewBox="0 0 28 28" fill="none" xmlns="http://www.w3.org/2000/svg">
<path d="M23.0712 8.81845C23.015 8.14443 22.7342 7.52658 22.2848 7.07723C21.8355 6.62788 21.2457 6.34704 20.5436 6.34704H19.0552V5.05517C19.0552 3.65095 18.4935 2.38716 17.5667 1.48847C16.6399 0.561685 15.3761 0 14 0C12.5958 0 11.332 0.561685 10.4333 1.48847C9.50651 2.38716 8.94482 3.65095 8.94482 5.05517V6.34704H7.45636C6.75425 6.34704 6.16448 6.62788 5.71513 7.07723C5.26578 7.52658 4.98494 8.14443 4.92877 8.81845L3.44031 25.4443C3.44031 25.5286 3.44031 25.6128 3.44031 25.6409C3.44031 26.2588 3.69307 26.8485 4.14241 27.2698C4.56368 27.663 5.12536 27.9438 5.71513 28H5.74322C5.82747 28 5.91172 28 5.96789 28H22.0321C22.0882 28 22.1725 28 22.2568 28C22.8746 27.9438 23.4363 27.663 23.8576 27.2698C24.3069 26.8485 24.5597 26.2588 24.5597 25.6128C24.5597 25.5567 24.5597 25.5005 24.5597 25.4162L23.0712 8.81845ZM10.4895 5.05517C10.4895 4.07222 10.8826 3.2016 11.5286 2.55567C12.1745 1.90973 13.0451 1.51655 14.0281 1.51655C15.011 1.51655 15.8816 1.90973 16.5276 2.55567C17.1735 3.2016 17.5667 4.07222 17.5667 5.05517V6.34704H10.4895V5.05517ZM22.9869 25.6409C22.9869 25.8656 22.9027 26.0622 22.7342 26.2026C22.5657 26.3711 22.3129 26.4834 22.0883 26.5115C22.0883 26.5115 22.0602 26.5115 22.004 26.5115H5.96789C5.91172 26.5115 5.88364 26.5115 5.88364 26.5115H5.85555C5.6028 26.4834 5.37812 26.3711 5.20962 26.2026C5.04111 26.0622 4.95686 25.8656 4.95686 25.6409V25.5567L6.44532 8.95888C6.47341 8.64995 6.61383 8.36911 6.81042 8.17252C6.97892 8.00401 7.2036 7.89167 7.45636 7.89167H8.94482V11.318C8.94482 11.7392 9.28183 12.0762 9.7031 12.0762C10.1244 12.0762 10.4614 11.7392 10.4614 11.318V7.89167H17.4824V11.318C17.4824 11.7392 17.8194 12.0762 18.2407 12.0762C18.662 12.0762 18.999 11.7392 18.999 11.318V7.89167H20.4874C20.7402 7.89167 20.9649 8.00401 21.1334 8.17252C21.33 8.36911 21.4704 8.64995 21.4985 8.95888L22.9869 25.5848V25.6409Z" fill="black"/>
</svg>
