<svg width="50" height="50" viewBox="0 0 50 50" fill="none" xmlns="http://www.w3.org/2000/svg">
<path d="M47.2222 0H40.6104C40.2027 0 39.8724 0.330371 39.8724 0.737988C39.8724 1.14561 40.2027 1.47598 40.6104 1.47598H47.2222C47.9399 1.47598 48.5239 2.05957 48.5239 2.77676V11.1094C48.5239 11.8267 47.94 12.4102 47.2222 12.4102H41.997C41.8448 12.4102 41.6963 12.4571 41.5719 12.5448L37.7896 15.2096C37.6932 15.2692 37.5503 15.2788 37.4603 15.2305C37.325 15.1576 37.3048 14.9273 37.3048 14.7965V13.1482C37.3048 12.7406 36.9744 12.4103 36.5668 12.4103H34.6544C33.9382 12.4103 33.3554 11.8267 33.3554 11.1095V8.14531C33.3554 8.14297 33.3554 8.14072 33.3554 8.13838V2.77686C33.3554 2.05957 33.9382 1.47607 34.6544 1.47607H37.2282C37.6358 1.47607 37.9662 1.1457 37.9662 0.738086C37.9662 0.330469 37.6358 9.76725e-05 37.2282 9.76725e-05H34.6544C33.1242 9.76725e-05 31.8794 1.2458 31.8794 2.77695V6.93818C30.5601 6.31172 29.1708 5.81103 27.7327 5.44902C23.0499 4.271 18.2232 4.6249 13.7748 6.47207C13.3982 6.62842 13.2198 7.06025 13.3762 7.43672C13.5325 7.81318 13.9646 7.9917 14.3408 7.83535C18.4939 6.11064 23.0003 5.78057 27.3725 6.88047C28.949 7.27734 30.4623 7.85176 31.8794 8.58604V11.1095C31.8794 12.6406 33.1242 13.8863 34.6544 13.8863H35.8287V14.7966C35.8287 15.5795 36.1684 16.2114 36.7604 16.5303C37.0187 16.6693 37.3084 16.7381 37.5993 16.7381C37.952 16.7381 38.3065 16.637 38.6087 16.4376C38.6149 16.4335 38.6212 16.4292 38.6273 16.4249L39.7088 15.663C42.8982 20.533 43.9162 26.5065 42.4958 32.1714C41.1409 37.5701 37.7666 42.118 32.9945 44.9771C28.2222 47.8366 22.6234 48.6646 17.2298 47.3088C15.0128 46.7501 12.9262 45.8474 11.0281 44.6255C10.8859 44.534 10.7165 44.494 10.549 44.5123L6.054 45.0001C4.94746 45.1254 3.99356 44.8717 3.50342 44.3222C3.0708 43.837 2.96309 43.1066 3.1833 42.1514C3.18516 42.1437 3.18682 42.1357 3.18838 42.1279L4.08779 37.5516C4.121 37.3828 4.09414 37.2078 4.01211 37.0567C1.50635 32.4467 0.829591 27.1058 2.10625 22.0177C3.4333 16.7229 6.72149 12.2269 11.3652 9.35781C11.712 9.14356 11.8195 8.68877 11.6053 8.34199C11.391 7.99512 10.9361 7.8877 10.5895 8.10195C5.6169 11.1744 2.0957 15.9891 0.674708 21.6587C-0.670507 27.0199 0.0100594 32.6437 2.58887 37.5255L1.74238 41.8318C1.33145 43.6294 1.87373 44.7123 2.40195 45.3047C3.22236 46.2245 4.61406 46.6485 6.2166 46.4673L10.4514 46.0077C12.4248 47.2451 14.5826 48.1639 16.8698 48.7403C18.6831 49.1961 20.5175 49.4215 22.3399 49.4214C26.323 49.4213 30.2469 48.3444 33.7534 46.2434C38.8636 43.1816 42.477 38.3116 43.9278 32.5305C45.4528 26.4483 44.3532 20.034 40.9166 14.8121L42.2309 13.8862H47.2222C48.7539 13.8862 50 12.6405 50 11.1094V2.77686C50 1.2457 48.7539 0 47.2222 0Z" fill="#1377BC"/>
<path d="M37.6628 8.31067C37.2552 8.31067 36.9248 8.64104 36.9248 9.04866C36.9248 9.45628 37.2552 9.78665 37.6628 9.78665H44.7673C45.1749 9.78665 45.5053 9.45628 45.5053 9.04866C45.5053 8.64104 45.1749 8.31067 44.7673 8.31067H37.6628Z" fill="#1377BC"/>
<path d="M44.6647 4.42957H37.5603C37.1526 4.42957 36.8223 4.75994 36.8223 5.16755C36.8223 5.57517 37.1526 5.90554 37.5603 5.90554H44.6647C45.0724 5.90554 45.4027 5.57517 45.4027 5.16755C45.4027 4.75994 45.0724 4.42957 44.6647 4.42957Z" fill="#1377BC"/>
<path d="M20.7998 26.3917C21.1743 26.2306 21.3473 25.7965 21.1861 25.422C20.7616 24.4352 19.7746 23.8226 18.61 23.8226C18.6092 23.8226 18.6082 23.8226 18.6076 23.8226C17.4435 23.8236 16.4579 24.4368 16.0354 25.4231C15.8749 25.7977 16.0485 26.2316 16.4232 26.3922C16.518 26.4328 16.6164 26.4519 16.7134 26.4519C16.9998 26.4519 17.2723 26.2843 17.3922 26.0044C17.6149 25.4847 18.1665 25.2992 18.6086 25.2988H18.6099C19.0531 25.2988 19.6061 25.4844 19.8302 26.0054C19.9912 26.3798 20.4252 26.553 20.7998 26.3917Z" fill="#1377BC"/>
<path d="M24.8043 30.5261C24.4297 30.3651 23.9957 30.5379 23.8346 30.9123C23.5859 31.4901 22.9745 31.6959 22.4851 31.6959C21.9959 31.6959 21.3845 31.4901 21.1359 30.9123C20.9748 30.5379 20.5409 30.365 20.1662 30.5261C19.7919 30.6873 19.6188 31.1214 19.7801 31.4958C20.225 32.5297 21.2615 33.172 22.4852 33.1721H22.4853C23.7089 33.1721 24.7456 32.5297 25.1906 31.4958C25.3516 31.1214 25.1788 30.6873 24.8043 30.5261Z" fill="#1377BC"/>
<path d="M17.1161 18.6763C14.4151 18.6763 12.2124 20.8455 12.1521 23.5343C11.7642 23.4593 11.366 23.4328 10.9691 23.4593C8.44776 23.6309 6.53575 25.8216 6.70694 28.3427C6.78985 29.5655 7.34317 30.6825 8.26476 31.4878C8.58253 31.7654 8.93107 31.9945 9.30138 32.1722V35.9079C9.30138 37.6285 9.9087 39.176 11.0114 40.2655C11.9535 41.1963 13.2188 41.7615 14.6225 41.8895C14.9169 42.7306 15.7187 43.3358 16.6596 43.3358H18.5415C19.7314 43.3358 20.6993 42.3685 20.6993 41.1767C20.6993 39.9877 19.7314 39.0204 18.5415 39.0204H16.6596C15.7415 39.0204 14.956 39.5966 14.6448 40.4072C12.34 40.1468 10.7775 38.3706 10.7775 35.908V32.5914C10.941 32.6091 11.1061 32.619 11.2725 32.619C11.378 32.619 11.4841 32.6155 11.5903 32.6083C11.7805 32.5952 11.9677 32.5698 12.1521 32.5342C12.2115 35.2223 14.4146 37.3912 17.1161 37.3912H27.4864C30.1867 37.3912 32.3887 35.222 32.4478 32.5336C32.6335 32.5695 32.8219 32.5951 33.013 32.6083C33.1192 32.6154 33.2249 32.619 33.3303 32.619C34.4372 32.619 35.4944 32.2234 36.3365 31.4879C37.2589 30.6823 37.8126 29.5654 37.8955 28.3419C38.0634 25.8211 36.1515 23.6307 33.6322 23.4593C33.2355 23.4329 32.8367 23.4596 32.4476 23.5351C32.3917 21.0312 30.4789 18.9786 28.036 18.7077V16.5296C29.2646 16.2026 30.1726 15.0803 30.1726 13.7495C30.1726 12.1634 28.883 10.8729 27.298 10.8729C25.7128 10.8729 24.4233 12.1634 24.4233 13.7495C24.4233 15.0804 25.3313 16.2027 26.5599 16.5297V18.6765H18.9305V16.5297C20.159 16.2027 21.067 15.0804 21.067 13.7496C21.067 12.1635 19.7775 10.873 18.1924 10.873C16.6073 10.873 15.3178 12.1635 15.3178 13.7496C15.3178 15.0804 16.2258 16.2028 17.4543 16.5297V18.6765H17.1161V18.6763ZM16.6595 40.4963H18.5414C18.9173 40.4963 19.2232 40.8014 19.2232 41.1794C19.2232 41.5544 18.9173 41.8596 18.5414 41.8596H16.6595C16.2836 41.8596 15.9777 41.5545 15.9777 41.1766C15.9777 40.8015 16.2836 40.4963 16.6595 40.4963ZM16.7943 13.7493C16.7943 12.977 17.4217 12.3488 18.1928 12.3488C18.9639 12.3488 19.5913 12.9771 19.5913 13.7493C19.5913 14.5215 18.9639 15.1499 18.1928 15.1499C17.4217 15.1499 16.7943 14.5216 16.7943 13.7493ZM11.4894 31.1353C11.0856 31.1632 10.6884 31.1126 10.315 30.9907C10.2918 30.9813 10.2681 30.9733 10.2438 30.9663C9.87823 30.837 9.53663 30.6388 9.23605 30.3761C8.61124 29.8301 8.23605 29.0725 8.1798 28.2427C8.06378 26.5335 9.35997 25.0483 11.0681 24.932C11.1373 24.9274 11.2066 24.9252 11.2757 24.9252C11.572 24.9252 11.8667 24.9673 12.1493 25.0493V31.0188C11.9364 31.0806 11.7157 31.1197 11.4894 31.1353ZM33.5333 24.932C35.2405 25.0481 36.5367 26.5338 36.4229 28.2427C36.3666 29.0721 35.9911 29.8297 35.3657 30.376C34.7406 30.9219 33.9401 31.1912 33.1141 31.1354C32.8869 31.1197 32.6651 31.0804 32.4506 31.018V25.0488C32.7998 24.9466 33.1625 24.9074 33.5333 24.932ZM30.9745 23.6471V24.539V31.5281V32.4229C30.9745 34.3484 29.4098 35.9149 27.4864 35.9149H17.1161C15.1912 35.9149 13.6253 34.3484 13.6253 32.4229V31.5281V24.539V23.6471C13.6253 21.7202 15.1912 20.1524 17.1161 20.1524L27.5228 20.1533C29.4294 20.1729 30.9745 21.7323 30.9745 23.6471ZM25.8996 13.7493C25.8996 12.977 26.5271 12.3488 27.2983 12.3488C28.0693 12.3488 28.6968 12.9771 28.6968 13.7493C28.6968 14.5215 28.0693 15.1499 27.2983 15.1499C26.5271 15.1499 25.8996 14.5216 25.8996 13.7493Z" fill="#1377BC"/>
<path d="M26.4044 23.8226C25.2395 23.8226 24.2523 24.4355 23.8279 25.422C23.6668 25.7965 23.8397 26.2306 24.2142 26.3917C24.5884 26.5527 25.0228 26.38 25.1838 26.0054C25.408 25.4844 25.9613 25.2988 26.4044 25.2988C26.8475 25.2988 27.4008 25.4844 27.625 26.0054C27.7451 26.2848 28.0174 26.452 28.3033 26.4519C28.4006 26.4519 28.4995 26.4326 28.5946 26.3917C28.969 26.2306 29.1421 25.7965 28.9809 25.422C28.5564 24.4356 27.5692 23.8226 26.4044 23.8226Z" fill="#1377BC"/>
</svg>
