<svg width="20" height="20" viewBox="0 0 20 20" fill="none" xmlns="http://www.w3.org/2000/svg">
<path d="M18.5 3.40002H1.5C0.7 3.40002 0 4.10002 0 4.90002V15C0 15.8 0.7 16.5 1.5 16.5H18.5C19.3 16.5 20 15.8 20 15V4.90002C20 4.10002 19.3 3.40002 18.5 3.40002Z" fill="#F5F5F5"/>
<path d="M0.0996094 4.49999H19.8996C19.6996 3.89999 19.0996 3.49999 18.4996 3.49999H1.49961C0.799609 3.39999 0.299609 3.89999 0.0996094 4.49999Z" fill="#FF4B55"/>
<path d="M20 7.5H0V8.5H20V7.5Z" fill="#FF4B55"/>
<path d="M20 5.5H0V6.5H20V5.5Z" fill="#FF4B55"/>
<path d="M0 10.2C0 10.4 0.2 10.5 0.3 10.5H20V9.5H0V10.2Z" fill="#FF4B55"/>
<path d="M20 13.5H0V14.5H20V13.5Z" fill="#FF4B55"/>
<path d="M19.8996 15.5H0.0996094C0.299609 16.1 0.899609 16.5 1.49961 16.5H18.4996C19.1996 16.6 19.6996 16.1 19.8996 15.5Z" fill="#FF4B55"/>
<path d="M20 11.5H0V12.5H20V11.5Z" fill="#FF4B55"/>
<path d="M0.3 10.5H9C9.2 10.5 9.3 10.3 9.3 10.2V3.80003C9.3 3.60003 9.1 3.50003 9 3.50003H1.5C0.7 3.40003 0 4.10003 0 4.90003V10.1C0 10.3 0.2 10.5 0.3 10.5Z" fill="#41479B"/>
<path d="M0.999609 4.19995V4.49995H1.19961C1.19961 4.49995 1.19961 4.49995 1.19961 4.59995L1.09961 4.69995L1.19961 4.89995C1.19961 4.89995 1.19961 4.99995 1.19961 4.89995L0.899609 4.79995L0.699609 4.89995C0.699609 4.89995 0.599609 4.89995 0.699609 4.89995L0.799609 4.69995L0.599609 4.49995V4.39995H0.799609L0.999609 4.19995C0.899609 4.19995 0.999609 4.19995 0.999609 4.19995Z" fill="#F5F5F5"/>
<path d="M0.999609 5.3999V5.6999H1.19961C1.19961 5.6999 1.19961 5.6999 1.19961 5.7999L1.09961 5.8999L1.19961 6.0999C1.19961 6.0999 1.19961 6.1999 1.19961 6.0999L0.899609 5.9999L0.699609 6.0999C0.699609 6.0999 0.599609 6.0999 0.699609 6.0999L0.799609 5.8999L0.599609 5.6999V5.5999H0.799609L0.999609 5.3999C0.899609 5.3999 0.999609 5.3999 0.999609 5.3999Z" fill="#F5F5F5"/>
<path d="M0.999609 6.59998V6.89998H1.19961C1.19961 6.89998 1.19961 6.89998 1.19961 6.99998L1.09961 7.09998L1.19961 7.29998C1.19961 7.29998 1.19961 7.39998 1.19961 7.29998L0.899609 7.19998L0.699609 7.29998C0.699609 7.29998 0.599609 7.29998 0.699609 7.29998L0.799609 7.09998L0.599609 6.89998V6.79998H0.799609L0.999609 6.59998C0.899609 6.59998 0.999609 6.59998 0.999609 6.59998Z" fill="#F5F5F5"/>
<path d="M0.999609 7.79993V8.09993H1.19961C1.19961 8.09993 1.19961 8.09993 1.19961 8.19993L1.09961 8.29993L1.19961 8.49993C1.19961 8.49993 1.19961 8.59993 1.19961 8.49993L0.899609 8.39993L0.699609 8.49993C0.699609 8.49993 0.599609 8.49993 0.699609 8.49993L0.799609 8.29993L0.599609 8.09993V7.99993H0.799609L0.999609 7.79993C0.899609 7.79993 0.999609 7.79993 0.999609 7.79993Z" fill="#F5F5F5"/>
<path d="M0.999609 9V9.3H1.19961C1.19961 9.3 1.19961 9.3 1.19961 9.4L1.09961 9.5L1.19961 9.7C1.19961 9.7 1.19961 9.8 1.19961 9.7L0.899609 9.6L0.699609 9.7C0.699609 9.7 0.599609 9.7 0.699609 9.7L0.799609 9.5L0.599609 9.3V9.2H0.799609L0.999609 9C0.899609 9 0.999609 9 0.999609 9Z" fill="#F5F5F5"/>
<path d="M1.9 4.79993L2 5.09993H2.2C2.2 5.09993 2.2 5.09993 2.2 5.19993L2 5.29993L2.1 5.49993C2.1 5.49993 2.1 5.59993 2.1 5.49993L1.9 5.39993L1.7 5.49993C1.7 5.49993 1.6 5.49993 1.7 5.49993L1.8 5.29993L1.5 5.09993V4.99993H1.7L1.9 4.79993C1.8 4.79993 1.9 4.79993 1.9 4.79993Z" fill="#F5F5F5"/>
<path d="M1.9 6L2 6.3H2.2C2.2 6.3 2.2 6.3 2.2 6.4L2 6.5L2.1 6.7C2.1 6.7 2.1 6.8 2.1 6.7L1.9 6.6L1.7 6.7C1.7 6.7 1.6 6.7 1.7 6.7L1.8 6.5L1.5 6.3V6.2H1.7L1.9 6C1.8 6 1.9 6 1.9 6Z" fill="#F5F5F5"/>
<path d="M1.9 7.19995L2 7.49995H2.2C2.2 7.49995 2.2 7.49995 2.2 7.59995L2 7.69995L2.1 7.89995C2.1 7.89995 2.1 7.99995 2.1 7.89995L1.9 7.79995L1.7 7.89995C1.7 7.89995 1.6 7.89995 1.7 7.89995L1.8 7.69995L1.5 7.49995V7.39995H1.7L1.9 7.19995C1.8 7.19995 1.9 7.19995 1.9 7.19995Z" fill="#F5F5F5"/>
<path d="M1.9 8.3999L2 8.5999H2.2C2.2 8.5999 2.2 8.5999 2.2 8.6999L2 8.8999L2.1 9.0999C2.1 9.0999 2.1 9.1999 2.1 9.0999L1.9 8.9999L1.7 9.0999C1.7 9.0999 1.6 9.0999 1.7 9.0999L1.8 8.8999L1.5 8.6999V8.5999H1.7L1.9 8.3999C1.8 8.3999 1.9 8.3999 1.9 8.3999Z" fill="#F5F5F5"/>
<path d="M2.7996 4.19995L2.8996 4.39995H3.0996C3.0996 4.39995 3.0996 4.39995 3.0996 4.49995L2.9996 4.69995V4.89995C2.9996 4.89995 2.9996 4.99995 2.9996 4.89995L2.7996 4.79995L2.5996 4.89995C2.5996 4.89995 2.4996 4.89995 2.5996 4.89995L2.6996 4.69995L2.3996 4.49995V4.39995H2.5996L2.7996 4.19995Z" fill="#F5F5F5"/>
<path d="M2.7996 5.3999L2.8996 5.5999H3.0996C3.0996 5.5999 3.0996 5.5999 3.0996 5.6999L2.9996 5.8999V6.0999C2.9996 6.0999 2.9996 6.1999 2.9996 6.0999L2.7996 5.9999L2.5996 6.0999C2.5996 6.0999 2.4996 6.0999 2.5996 6.0999L2.6996 5.8999L2.3996 5.6999V5.5999H2.5996L2.7996 5.3999Z" fill="#F5F5F5"/>
<path d="M2.7996 6.59998L2.8996 6.79998H3.0996C3.0996 6.79998 3.0996 6.79998 3.0996 6.89998L2.9996 7.09998V7.29998C2.9996 7.29998 2.9996 7.39998 2.9996 7.29998L2.7996 7.19998L2.5996 7.29998C2.5996 7.29998 2.4996 7.29998 2.5996 7.29998L2.6996 7.09998L2.3996 6.89998V6.79998H2.5996L2.7996 6.59998Z" fill="#F5F5F5"/>
<path d="M2.7996 7.79993L2.8996 7.99993H3.0996C3.0996 7.99993 3.0996 7.99993 3.0996 8.09993L2.9996 8.29993V8.49993C2.9996 8.49993 2.9996 8.59993 2.9996 8.49993L2.7996 8.39993L2.5996 8.49993C2.5996 8.49993 2.4996 8.49993 2.5996 8.49993L2.6996 8.29993L2.3996 8.09993V7.99993H2.5996L2.7996 7.79993Z" fill="#F5F5F5"/>
<path d="M2.7996 9L2.8996 9.2H3.0996C3.0996 9.2 3.0996 9.2 3.0996 9.3L2.9996 9.5V9.7C2.9996 9.7 2.9996 9.8 2.9996 9.7L2.7996 9.6L2.5996 9.7C2.5996 9.7 2.4996 9.7 2.5996 9.7L2.6996 9.5L2.3996 9.3V9.2H2.5996L2.7996 9Z" fill="#F5F5F5"/>
<path d="M3.7996 4.79993L3.8996 4.99993H4.0996C4.0996 4.99993 4.0996 4.99993 4.0996 5.09993L3.8996 5.29993L3.9996 5.49993C3.9996 5.49993 3.9996 5.59993 3.9996 5.49993L3.6996 5.39993L3.4996 5.49993C3.4996 5.49993 3.3996 5.49993 3.4996 5.49993L3.5996 5.29993L3.3996 5.09993V4.99993H3.5996L3.7996 4.79993C3.6996 4.79993 3.6996 4.79993 3.7996 4.79993Z" fill="#F5F5F5"/>
<path d="M3.7996 6L3.8996 6.2H4.0996C4.0996 6.2 4.0996 6.2 4.0996 6.3L3.8996 6.5L3.9996 6.7C3.9996 6.7 3.9996 6.8 3.9996 6.7L3.6996 6.6L3.4996 6.7C3.4996 6.7 3.3996 6.7 3.4996 6.7L3.5996 6.5L3.3996 6.3V6.2H3.5996L3.7996 6C3.6996 6 3.6996 6 3.7996 6Z" fill="#F5F5F5"/>
<path d="M3.7996 7.19995L3.8996 7.39995H4.0996C4.0996 7.39995 4.0996 7.39995 4.0996 7.49995L3.8996 7.69995L3.9996 7.89995C3.9996 7.89995 3.9996 7.99995 3.9996 7.89995L3.6996 7.79995L3.4996 7.89995C3.4996 7.89995 3.3996 7.89995 3.4996 7.89995L3.5996 7.69995L3.3996 7.49995V7.39995H3.5996L3.7996 7.19995C3.6996 7.19995 3.6996 7.19995 3.7996 7.19995Z" fill="#F5F5F5"/>
<path d="M3.7996 8.3999L3.8996 8.5999H4.0996C4.0996 8.5999 4.0996 8.5999 4.0996 8.6999L3.8996 8.8999L3.9996 9.0999C3.9996 9.0999 3.9996 9.1999 3.9996 9.0999L3.6996 8.9999L3.4996 9.0999C3.4996 9.0999 3.3996 9.0999 3.4996 9.0999L3.5996 8.8999L3.3996 8.6999V8.5999H3.5996L3.7996 8.3999C3.6996 8.3999 3.6996 8.3999 3.7996 8.3999Z" fill="#F5F5F5"/>
<path d="M4.69962 4.19995L4.79962 4.39995H4.99962C4.99962 4.39995 4.99962 4.39995 4.99962 4.49995L4.79962 4.69995L4.89962 4.89995C4.89962 4.89995 4.89962 4.99995 4.89962 4.89995L4.69962 4.79995L4.49962 4.89995C4.49962 4.89995 4.39962 4.89995 4.49962 4.89995L4.59962 4.69995L4.29962 4.49995V4.39995H4.49962L4.69962 4.19995C4.59962 4.19995 4.69962 4.19995 4.69962 4.19995Z" fill="#F5F5F5"/>
<path d="M4.69962 5.3999L4.79962 5.5999H4.99962C4.99962 5.5999 4.99962 5.5999 4.99962 5.6999L4.79962 5.8999L4.89962 6.0999C4.89962 6.0999 4.89962 6.1999 4.89962 6.0999L4.69962 5.9999L4.49962 6.0999C4.49962 6.0999 4.39962 6.0999 4.49962 6.0999L4.59962 5.8999L4.29962 5.6999V5.5999H4.49962L4.69962 5.3999C4.59962 5.3999 4.69962 5.3999 4.69962 5.3999Z" fill="#F5F5F5"/>
<path d="M4.69962 6.59998L4.79962 6.79998H4.99962C4.99962 6.79998 4.99962 6.79998 4.99962 6.89998L4.79962 7.09998L4.89962 7.29998C4.89962 7.29998 4.89962 7.39998 4.89962 7.29998L4.69962 7.19998L4.49962 7.29998C4.49962 7.29998 4.39962 7.29998 4.49962 7.29998L4.59962 7.09998L4.29962 6.89998V6.79998H4.49962L4.69962 6.59998C4.59962 6.59998 4.69962 6.59998 4.69962 6.59998Z" fill="#F5F5F5"/>
<path d="M4.69962 7.79993L4.79962 7.99993H4.99962C4.99962 7.99993 4.99962 7.99993 4.99962 8.09993L4.79962 8.29993L4.89962 8.49993C4.89962 8.49993 4.89962 8.59993 4.89962 8.49993L4.69962 8.39993L4.49962 8.49993C4.49962 8.49993 4.39962 8.49993 4.49962 8.49993L4.59962 8.29993L4.29962 8.09993V7.99993H4.49962L4.69962 7.79993C4.59962 7.79993 4.69962 7.79993 4.69962 7.79993Z" fill="#F5F5F5"/>
<path d="M4.69962 9L4.79962 9.2H4.99962C4.99962 9.2 4.99962 9.2 4.99962 9.3L4.79962 9.5L4.89962 9.7C4.89962 9.7 4.89962 9.8 4.89962 9.7L4.69962 9.6L4.49962 9.7C4.49962 9.7 4.39962 9.7 4.49962 9.7L4.59962 9.5L4.29962 9.3V9.2H4.49962L4.69962 9C4.59962 9 4.69962 9 4.69962 9Z" fill="#F5F5F5"/>
<path d="M5.59922 4.79993L5.69922 4.99993H5.89922C5.89922 4.99993 5.89922 4.99993 5.89922 5.09993L5.79922 5.29993L5.89922 5.49993C5.89922 5.49993 5.89922 5.59993 5.89922 5.49993L5.59922 5.39993L5.39922 5.49993C5.39922 5.49993 5.29922 5.49993 5.39922 5.49993L5.49922 5.29993L5.19922 5.09993V4.99993H5.39922L5.59922 4.79993Z" fill="#F5F5F5"/>
<path d="M5.59922 6L5.69922 6.2H5.89922C5.89922 6.2 5.89922 6.2 5.89922 6.3L5.79922 6.5L5.89922 6.7C5.89922 6.7 5.89922 6.8 5.89922 6.7L5.59922 6.6L5.39922 6.7C5.39922 6.7 5.29922 6.7 5.39922 6.7L5.49922 6.5L5.19922 6.3V6.2H5.39922L5.59922 6Z" fill="#F5F5F5"/>
<path d="M5.59922 7.19995L5.69922 7.39995H5.89922C5.89922 7.39995 5.89922 7.39995 5.89922 7.49995L5.79922 7.69995L5.89922 7.89995C5.89922 7.89995 5.89922 7.99995 5.89922 7.89995L5.59922 7.79995L5.39922 7.89995C5.39922 7.89995 5.29922 7.89995 5.39922 7.89995L5.49922 7.69995L5.19922 7.49995V7.39995H5.39922L5.59922 7.19995Z" fill="#F5F5F5"/>
<path d="M5.59922 8.3999L5.69922 8.5999H5.89922C5.89922 8.5999 5.89922 8.5999 5.89922 8.6999L5.79922 8.8999L5.89922 9.0999C5.89922 9.0999 5.89922 9.1999 5.89922 9.0999L5.59922 8.9999L5.39922 9.0999C5.39922 9.0999 5.29922 9.0999 5.39922 9.0999L5.49922 8.8999L5.19922 8.6999V8.5999H5.39922L5.59922 8.3999Z" fill="#F5F5F5"/>
<path d="M6.49961 4.19995L6.59961 4.39995H6.79961C6.79961 4.39995 6.79961 4.39995 6.79961 4.49995L6.69961 4.69995L6.79961 4.89995C6.79961 4.89995 6.79961 4.99995 6.79961 4.89995L6.49961 4.79995L6.29961 4.89995C6.29961 4.89995 6.19961 4.89995 6.29961 4.89995L6.39961 4.69995L6.09961 4.49995V4.39995H6.29961L6.49961 4.19995Z" fill="#F5F5F5"/>
<path d="M6.49961 5.3999L6.59961 5.5999H6.79961C6.79961 5.5999 6.79961 5.5999 6.79961 5.6999L6.69961 5.8999L6.79961 6.0999C6.79961 6.0999 6.79961 6.1999 6.79961 6.0999L6.49961 5.9999L6.29961 6.0999C6.29961 6.0999 6.19961 6.0999 6.29961 6.0999L6.39961 5.8999L6.09961 5.6999V5.5999H6.29961L6.49961 5.3999Z" fill="#F5F5F5"/>
<path d="M6.49961 6.59998L6.59961 6.79998H6.79961C6.79961 6.79998 6.79961 6.79998 6.79961 6.89998L6.69961 7.09998L6.79961 7.29998C6.79961 7.29998 6.79961 7.39998 6.79961 7.29998L6.49961 7.19998L6.29961 7.29998C6.29961 7.29998 6.19961 7.29998 6.29961 7.29998L6.39961 7.09998L6.09961 6.89998V6.79998H6.29961L6.49961 6.59998Z" fill="#F5F5F5"/>
<path d="M6.49961 7.79993L6.59961 7.99993H6.79961C6.79961 7.99993 6.79961 7.99993 6.79961 8.09993L6.69961 8.29993L6.79961 8.49993C6.79961 8.49993 6.79961 8.59993 6.79961 8.49993L6.49961 8.39993L6.29961 8.49993C6.29961 8.49993 6.19961 8.49993 6.29961 8.49993L6.39961 8.29993L6.09961 8.09993V7.99993H6.29961L6.49961 7.79993Z" fill="#F5F5F5"/>
<path d="M6.49961 9L6.59961 9.2H6.79961C6.79961 9.2 6.79961 9.2 6.79961 9.3L6.69961 9.5L6.79961 9.7C6.79961 9.7 6.79961 9.8 6.79961 9.7L6.49961 9.6L6.29961 9.7C6.29961 9.7 6.19961 9.7 6.29961 9.7L6.39961 9.5L6.09961 9.3V9.2H6.29961L6.49961 9Z" fill="#F5F5F5"/>
<path d="M7.49961 4.79993L7.59961 4.99993H7.79961C7.79961 4.99993 7.79961 4.99993 7.79961 5.09993L7.59961 5.29993L7.69961 5.49993C7.69961 5.49993 7.69961 5.59993 7.69961 5.49993L7.39961 5.39993L7.19961 5.49993C7.19961 5.49993 7.09961 5.49993 7.19961 5.49993L7.29961 5.29993L7.09961 5.09993V4.99993H7.29961L7.49961 4.79993C7.39961 4.79993 7.49961 4.79993 7.49961 4.79993Z" fill="#F5F5F5"/>
<path d="M7.49961 6L7.59961 6.2H7.79961C7.79961 6.2 7.79961 6.2 7.79961 6.3L7.59961 6.5L7.69961 6.7C7.69961 6.7 7.69961 6.8 7.69961 6.7L7.39961 6.6L7.19961 6.7C7.19961 6.7 7.09961 6.7 7.19961 6.7L7.29961 6.5L7.09961 6.3V6.2H7.29961L7.49961 6C7.39961 6 7.49961 6 7.49961 6Z" fill="#F5F5F5"/>
<path d="M7.49961 7.19995L7.59961 7.39995H7.79961C7.79961 7.39995 7.79961 7.39995 7.79961 7.49995L7.59961 7.69995L7.69961 7.89995C7.69961 7.89995 7.69961 7.99995 7.69961 7.89995L7.39961 7.79995L7.19961 7.89995C7.19961 7.89995 7.09961 7.89995 7.19961 7.89995L7.29961 7.69995L7.09961 7.49995V7.39995H7.29961L7.49961 7.19995C7.39961 7.19995 7.49961 7.19995 7.49961 7.19995Z" fill="#F5F5F5"/>
<path d="M7.49961 8.3999L7.59961 8.5999H7.79961C7.79961 8.5999 7.79961 8.5999 7.79961 8.6999L7.59961 8.8999L7.69961 9.0999C7.69961 9.0999 7.69961 9.1999 7.69961 9.0999L7.39961 8.9999L7.19961 9.0999C7.19961 9.0999 7.09961 9.0999 7.19961 9.0999L7.29961 8.8999L7.09961 8.6999V8.5999H7.29961L7.49961 8.3999C7.39961 8.3999 7.49961 8.3999 7.49961 8.3999Z" fill="#F5F5F5"/>
<path d="M8.4 4.19995L8.5 4.39995H8.7C8.7 4.39995 8.7 4.39995 8.7 4.49995L8.5 4.69995L8.6 4.89995C8.6 4.89995 8.6 4.99995 8.6 4.89995L8.4 4.79995L8.2 4.89995C8.2 4.89995 8.1 4.89995 8.2 4.89995L8.3 4.69995L8 4.49995V4.39995H8.2L8.4 4.19995Z" fill="#F5F5F5"/>
<path d="M8.4 5.3999L8.5 5.5999H8.7C8.7 5.5999 8.7 5.5999 8.7 5.6999L8.5 5.8999L8.6 6.0999C8.6 6.0999 8.6 6.1999 8.6 6.0999L8.4 5.9999L8.2 6.0999C8.2 6.0999 8.1 6.0999 8.2 6.0999L8.3 5.8999L8 5.6999V5.5999H8.2L8.4 5.3999Z" fill="#F5F5F5"/>
<path d="M8.4 6.59998L8.5 6.79998H8.7C8.7 6.79998 8.7 6.79998 8.7 6.89998L8.5 7.09998L8.6 7.29998C8.6 7.29998 8.6 7.39998 8.6 7.29998L8.4 7.19998L8.2 7.29998C8.2 7.29998 8.1 7.29998 8.2 7.29998L8.3 7.09998L8 6.89998V6.79998H8.2L8.4 6.59998Z" fill="#F5F5F5"/>
<path d="M8.4 7.79993L8.5 7.99993H8.7C8.7 7.99993 8.7 7.99993 8.7 8.09993L8.5 8.29993L8.6 8.49993C8.6 8.49993 8.6 8.59993 8.6 8.49993L8.4 8.39993L8.2 8.49993C8.2 8.49993 8.1 8.49993 8.2 8.49993L8.3 8.29993L8 8.09993V7.99993H8.2L8.4 7.79993Z" fill="#F5F5F5"/>
<path d="M8.4 9L8.5 9.2H8.7C8.7 9.2 8.7 9.2 8.7 9.3L8.5 9.5L8.6 9.7C8.6 9.7 8.6 9.8 8.6 9.7L8.4 9.6L8.2 9.7C8.2 9.7 8.1 9.7 8.2 9.7L8.3 9.5L8 9.3V9.2H8.2L8.4 9Z" fill="#F5F5F5"/>
</svg>
